<svg width="126" height="49" viewBox="0 0 126 49" fill="none" xmlns="http://www.w3.org/2000/svg">
<g clip-path="url(#clip0_106_2)">
<path d="M27.3736 26.9945C23.5345 29.2111 21.0248 32.8458 20.124 36.8549C19.9191 37.7674 20.4486 38.6846 21.3413 38.9633C25.2636 40.1878 29.6663 39.8317 33.5055 37.6152C37.3446 35.3987 39.8543 31.7639 40.755 27.7548C40.96 26.8423 40.4305 25.9251 39.5378 25.6464C35.6154 24.4219 31.2127 24.778 27.3736 26.9945Z" fill="url(#paint0_linear_106_2)"/>
<path d="M33.5062 37.6154C32.7656 38.0437 31.9903 38.4089 31.1886 38.7072L30.4197 38.3401C26.763 36.595 23.131 36.5248 20.3213 38.147C23.131 36.5248 24.8862 33.3442 25.2032 29.3049L25.2697 28.4555C25.929 27.9103 26.6329 27.4215 27.374 26.9943C31.2134 24.7777 35.6157 24.4216 39.5383 25.6462C40.4315 25.925 40.961 26.8421 40.7558 27.755C39.8549 31.7643 37.3454 35.3988 33.5062 37.6154Z" fill="url(#paint1_linear_106_2)"/>
<path d="M25.4326 35.196C28.2424 33.5738 31.8744 33.6441 35.531 35.3892L36.1514 35.6854C38.5082 33.5425 40.0821 30.7536 40.7559 27.7549C40.961 26.8421 40.4315 25.925 39.5384 25.6462C36.6045 24.7303 33.4024 24.699 30.3682 25.6685L30.3145 26.3539C29.9975 30.3934 28.2423 33.5738 25.4326 35.196Z" fill="url(#paint2_linear_106_2)"/>
<path d="M31.3711 31.7673C33.6842 30.4318 36.5548 30.2444 39.5375 31.1933C40.079 30.0998 40.4879 28.9455 40.7556 27.755C40.9607 26.8421 40.4312 25.925 39.5381 25.6462C38.3732 25.2827 37.1691 25.0597 35.9514 24.982C35.2818 28.0395 33.6842 30.4318 31.3711 31.7673Z" fill="url(#paint3_linear_106_2)"/>
<path d="M21.3416 38.9634C25.2639 40.1879 29.6666 39.8319 33.5058 37.6153C37.3449 35.3988 39.8546 31.764 40.7553 27.7549C40.8546 27.3149 40.7843 26.8535 40.5584 26.4631L20.3213 38.1468C20.5465 38.5378 20.9108 38.8294 21.3416 38.9634Z" fill="url(#paint4_linear_106_2)"/>
<path d="M27.3736 26.9945C23.5345 29.2111 21.0248 32.8458 20.124 36.8549C19.9191 37.7674 20.4486 38.6846 21.3413 38.9633C25.2636 40.1878 29.6663 39.8317 33.5055 37.6152C37.3446 35.3987 39.8543 31.7639 40.755 27.7548C40.96 26.8423 40.4305 25.9251 39.5378 25.6464C35.6154 24.4219 31.2127 24.778 27.3736 26.9945Z" fill="url(#paint5_linear_106_2)"/>
<path d="M35.4593 24.3649C35.3699 24.3649 35.2841 24.3293 35.2209 24.2661C35.1576 24.2028 35.1221 24.1171 35.1221 24.0276V23.8334C35.1215 23.6122 35.1647 23.3932 35.2493 23.1889C35.334 22.9846 35.4583 22.7991 35.6151 22.6432L35.7471 22.5112C35.8104 22.4479 35.8961 22.4124 35.9856 22.4124C36.075 22.4124 36.1608 22.448 36.2241 22.5112C36.2873 22.5745 36.3228 22.6603 36.3228 22.7497C36.3228 22.8392 36.2872 22.925 36.224 22.9882L36.0919 23.1202C35.998 23.2136 35.9235 23.3248 35.8728 23.4472C35.8221 23.5696 35.7962 23.7009 35.7966 23.8334V24.0276C35.7966 24.1171 35.7611 24.2028 35.6978 24.2661C35.6346 24.3293 35.5488 24.3649 35.4593 24.3649Z" fill="url(#paint6_linear_106_2)"/>
<path d="M34.8019 24.3649C34.7124 24.3649 34.6266 24.3294 34.5634 24.2661C34.5001 24.2029 34.4646 24.1171 34.4646 24.0277V23.8334C34.4646 23.564 34.3596 23.3106 34.1692 23.1201L34.0372 22.9882C33.9761 22.9245 33.9425 22.8395 33.9434 22.7512C33.9443 22.663 33.9797 22.5787 34.0421 22.5163C34.1045 22.4539 34.1888 22.4184 34.2771 22.4174C34.3653 22.4165 34.4504 22.4501 34.5141 22.5112L34.6461 22.6431C34.8029 22.7991 34.9272 22.9846 35.0118 23.1889C35.0965 23.3932 35.1397 23.6123 35.1391 23.8334V24.0277C35.1391 24.1171 35.1036 24.2029 35.0403 24.2661C34.9771 24.3294 34.8913 24.3649 34.8019 24.3649Z" fill="url(#paint7_linear_106_2)"/>
<path d="M35.698 25.3401H34.5629C34.1924 25.3401 33.9224 24.9892 34.0171 24.6311L34.073 24.4198C34.1252 24.2227 34.2411 24.0483 34.4026 23.9239C34.5642 23.7996 34.7624 23.7321 34.9663 23.7321H35.2947C35.714 23.7321 36.0808 24.0144 36.188 24.4198L36.2439 24.6311C36.3385 24.9893 36.0685 25.3401 35.698 25.3401Z" fill="url(#paint8_linear_106_2)"/>
<path d="M35.1303 28.6516C36.1115 28.6516 36.907 27.8562 36.907 26.8749C36.907 25.8936 36.1115 25.0981 35.1303 25.0981C34.149 25.0981 33.3535 25.8936 33.3535 26.8749C33.3535 27.8562 34.149 28.6516 35.1303 28.6516Z" fill="url(#paint9_linear_106_2)"/>
<path d="M35.1153 24.9018C34.081 24.9101 33.2451 25.751 33.2451 26.7872C33.2451 27.7248 33.9293 28.5024 34.8257 28.6482C34.9777 28.6729 35.1153 28.5539 35.1153 28.3999V24.9018Z" fill="url(#paint10_linear_106_2)"/>
<path d="M35.115 25.2725C34.775 25.2808 34.502 25.5588 34.502 25.9007C34.502 26.2426 34.775 26.5205 35.115 26.5288V25.2725Z" fill="url(#paint11_linear_106_2)"/>
<path d="M34.166 27.6255C34.0581 27.6255 33.952 27.6532 33.8579 27.7061C33.7638 27.759 33.685 27.8352 33.6289 27.9274C33.8896 28.2707 34.2599 28.5144 34.6783 28.618C34.7451 28.524 34.7847 28.4134 34.7928 28.2984C34.801 28.1833 34.7773 28.0682 34.7244 27.9658C34.6715 27.8633 34.5914 27.7773 34.4929 27.7173C34.3944 27.6573 34.2813 27.6256 34.166 27.6255Z" fill="url(#paint12_linear_106_2)"/>
<path d="M33.2606 27.03C33.3853 27.0399 33.5089 27.0016 33.6062 26.923C33.7034 26.8445 33.7668 26.7316 33.7833 26.6077C33.7997 26.4837 33.768 26.3582 33.6947 26.257C33.6214 26.1557 33.512 26.0865 33.3891 26.0635C33.2938 26.2928 33.2448 26.5388 33.2451 26.7872C33.2451 26.8695 33.2504 26.9505 33.2606 27.03Z" fill="url(#paint13_linear_106_2)"/>
<path d="M35.1152 24.9018C36.1495 24.9101 36.9854 25.751 36.9854 26.7872C36.9854 27.7248 36.3012 28.5024 35.4049 28.6482C35.2528 28.6729 35.1152 28.5539 35.1152 28.3999V24.9018Z" fill="url(#paint14_linear_106_2)"/>
<path d="M35.1152 25.2725C35.4552 25.2808 35.7283 25.5588 35.7283 25.9007C35.7283 26.2426 35.4552 26.5205 35.1152 26.5288V25.2725Z" fill="url(#paint15_linear_106_2)"/>
<path d="M36.064 27.6255C36.172 27.6255 36.2781 27.6532 36.3721 27.7061C36.4662 27.759 36.5451 27.8352 36.6011 27.9274C36.3405 28.2707 35.9701 28.5144 35.5518 28.618C35.4849 28.524 35.4453 28.4134 35.4371 28.2983C35.429 28.1833 35.4526 28.0682 35.5056 27.9657C35.5585 27.8632 35.6386 27.7773 35.7371 27.7173C35.8356 27.6573 35.9487 27.6255 36.064 27.6255Z" fill="url(#paint16_linear_106_2)"/>
<path d="M36.9702 27.03C36.8456 27.0399 36.722 27.0016 36.6247 26.923C36.5275 26.8445 36.4641 26.7316 36.4476 26.6077C36.4311 26.4837 36.4628 26.3582 36.5362 26.257C36.6095 26.1557 36.7189 26.0865 36.8418 26.0635C36.9371 26.2928 36.9861 26.5388 36.9858 26.7872C36.9858 26.8695 36.9804 26.9505 36.9702 27.03Z" fill="url(#paint17_linear_106_2)"/>
<path d="M16.8239 17.9412H25.6474C27.4121 17.9412 28.4122 19.647 28.4122 21.5294C28.4122 23.1176 27.5887 25 25.6474 25H16.8239V35.0001H32.5886C34.3533 35.0001 35.3533 36.8825 35.3533 39.0588C35.3533 40.9412 34.5298 43 32.5886 43H11.6474C9.64747 43 7.64746 42.0588 7.64746 40.1765V2.8235C7.64746 0.941194 9.64747 0 11.6474 0H32.5886C34.5298 0 35.3533 2.05886 35.3533 3.94116C35.3533 6.11764 34.3533 7.99994 32.5886 7.99994H16.8239V17.9412Z" fill="url(#paint18_linear_106_2)"/>
<path d="M11.6469 40.8922C11.0092 40.8922 10.4 40.7488 10.0173 40.5087C9.75488 40.344 9.75488 40.2472 9.75488 40.1765V2.8235C9.75488 2.75285 9.75488 2.65597 10.0173 2.49131C10.4 2.25118 11.0091 2.10785 11.6469 2.10785H32.5881C32.6767 2.10785 32.7466 2.10785 32.8893 2.34654C33.112 2.71887 33.2449 3.31497 33.2449 3.94117C33.2449 5.13235 32.8137 5.89219 32.5881 5.89219H16.8234C15.6593 5.89219 14.7156 6.83591 14.7156 8.00003V17.9412C14.7156 19.1053 15.6593 20.0491 16.8234 20.0491H25.6468C25.7325 20.0491 25.8295 20.0491 25.9732 20.251C26.1801 20.542 26.3037 21.02 26.3037 21.5294C26.3037 21.9696 26.1897 22.413 26.0064 22.6866C25.8817 22.8727 25.801 22.8922 25.6468 22.8922H16.8234C15.6593 22.8922 14.7156 23.8359 14.7156 25V35C14.7156 36.1641 15.6593 37.1078 16.8234 37.1078H32.5881C32.8137 37.1078 33.2449 37.8676 33.2449 39.0589C33.2449 39.685 33.112 40.2811 32.8893 40.6535C32.7466 40.8922 32.6767 40.8922 32.5881 40.8922H11.6469Z" fill="url(#paint19_linear_106_2)"/>
<path d="M14.7156 35V25C14.7156 23.851 15.6351 22.9174 16.7783 22.8934V20.048C15.6351 20.0238 14.7156 19.0902 14.7156 17.9413V8.00003C14.7156 6.851 15.6351 5.9174 16.7783 5.89337V2.10785H11.6469C11.0092 2.10785 10.4 2.25118 10.0173 2.49131C9.75488 2.65597 9.75488 2.75285 9.75488 2.8235V40.1764C9.75488 40.2471 9.75488 40.344 10.0173 40.5086C10.4 40.7488 11.0091 40.8922 11.6469 40.8922H16.7783V37.1067C15.6351 37.0826 14.7156 36.149 14.7156 35Z" fill="url(#paint20_linear_106_2)"/>
<path d="M32.5881 2.10785H11.6469C11.0092 2.10785 10.4 2.25118 10.0173 2.49131C9.75488 2.65597 9.75488 2.75285 9.75488 2.8235V12.4784H14.7156V8.00003C14.7156 6.83591 15.6594 5.89219 16.8235 5.89219H32.5882C32.8138 5.89219 33.245 5.13244 33.245 3.94117C33.245 3.31497 33.1121 2.71887 32.8894 2.34654C32.7466 2.10785 32.6767 2.10785 32.5881 2.10785Z" fill="url(#paint21_linear_106_2)"/>
<path d="M7.64746 29.0448V40.1765C7.64746 42.0588 9.64738 43 11.6474 43H32.5886C34.5298 43 35.3533 40.9411 35.3533 39.0588C35.3533 36.8824 34.3533 35 32.5886 35H16.8239V29.0448H7.64746Z" fill="url(#paint22_linear_106_2)"/>
<path d="M32.5882 35H16.8234L16.7783 43H32.5882C34.5293 43 35.3528 40.9412 35.3528 39.0589C35.3528 36.8824 34.3528 35 32.5882 35Z" fill="url(#paint23_linear_106_2)"/>
<path d="M32.5882 0H16.8234L16.7783 8.00002H32.5882C34.5293 8.00002 35.3528 5.94117 35.3528 4.05886C35.3528 1.88239 34.3528 0 32.5882 0Z" fill="url(#paint24_linear_106_2)"/>
<path d="M16.8233 27.4365V43H11.6473C9.64738 43 7.64746 42.0591 7.64746 40.1763V25.9501C8.80172 26.3565 10.0411 26.6962 11.3429 26.9509C13.2552 27.3252 15.1118 27.4787 16.8233 27.4365Z" fill="url(#paint25_linear_106_2)"/>
<path d="M16.8239 12.0594V8.00004H20.2821L18.1559 5.8739H13.8841L11.5625 6.79806L16.8239 12.0594Z" fill="url(#paint26_linear_106_2)"/>
<path d="M24.5311 14.9547C23.3611 15.2682 22.174 15.0509 21.2253 14.4503C21.1212 14.3844 21.0457 14.2817 21.0138 14.1626C20.9819 14.0436 20.996 13.9169 21.0532 13.8077C21.5744 12.8133 22.4938 12.0315 23.6639 11.718C24.8339 11.4046 26.021 11.6219 26.9696 12.2225C27.0738 12.2884 27.1493 12.3911 27.1812 12.5101C27.2131 12.6292 27.199 12.7559 27.1418 12.865C26.6206 13.8594 25.7011 14.6413 24.5311 14.9547Z" fill="url(#paint27_linear_106_2)"/>
<path d="M21.0532 13.8078C21.5744 12.8134 22.4939 12.0316 23.6639 11.7181C24.8339 11.4046 26.0211 11.622 26.9697 12.2225C27.0739 12.2884 27.1494 12.3911 27.1812 12.5102L21.0139 14.1628C20.9819 14.0437 20.9959 13.917 21.0532 13.8078Z" fill="url(#paint28_linear_106_2)"/>
<path d="M11.5617 6.79803C11.3671 6.48017 11.4894 6.06559 11.8232 5.89958C14.1591 4.73782 16.9531 4.79794 19.2699 6.0951C20.1122 6.5681 20.8204 7.17516 21.3668 7.87665C22.0472 8.74846 22.4789 9.76612 22.6113 10.8479C22.6399 11.0823 22.6543 11.32 22.6543 11.5603C22.6543 14.3764 20.6257 16.8502 17.6072 17.7161L16.8231 17.9412V16.625L17.2582 16.5003C19.7294 15.792 21.3896 13.8064 21.3896 11.5603C21.3896 11.3124 21.3702 11.0688 21.3322 10.8293C21.0995 9.33612 20.151 8.03854 18.6519 7.19877C16.7023 6.10666 14.3528 6.0548 12.3892 7.03023C12.0931 7.17727 11.7344 7.07997 11.5617 6.79803Z" fill="url(#paint29_linear_106_2)"/>
<path d="M21.3323 10.8294C21.3703 11.0688 21.3897 11.3125 21.3897 11.5604C21.3897 13.8065 19.7295 15.7921 17.2583 16.5003L16.8232 16.6251V17.9412L17.6074 17.7161C20.6258 16.8502 22.6544 14.3764 22.6544 11.5604C22.6544 11.3201 22.64 11.0823 22.6114 10.8479C22.5202 10.1032 22.2872 9.38894 21.9289 8.73163H20.4379C20.9074 9.3569 21.2135 10.0674 21.3323 10.8294Z" fill="url(#paint30_linear_106_2)"/>
<path d="M33.9023 10.9644C34.5079 9.91541 35.5011 9.2296 36.5966 8.98348C36.7168 8.95648 36.8428 8.9757 36.9495 9.03733C37.0562 9.09895 37.1359 9.19847 37.1726 9.3161C37.5071 10.3878 37.4098 11.5908 36.8042 12.6397C36.1986 13.6887 35.2055 14.3745 34.11 14.6206C33.9897 14.6476 33.8637 14.6284 33.757 14.5668C33.6503 14.5051 33.5706 14.4056 33.5339 14.288C33.1994 13.2163 33.2966 12.0133 33.9023 10.9644Z" fill="url(#paint31_linear_106_2)"/>
<path d="M37.1724 9.31609C37.5069 10.3878 37.4096 11.5908 36.804 12.6397C36.1984 13.6887 35.2053 14.3745 34.1098 14.6206C33.9896 14.6477 33.8635 14.6285 33.7568 14.5668L36.9493 9.03735C37.0561 9.09887 37.1358 9.19841 37.1724 9.31609Z" fill="url(#paint32_linear_106_2)"/>
<path d="M20.5843 26.3075C20.2708 25.1375 20.4882 23.9504 21.0887 23.0018C21.1547 22.8976 21.2574 22.8221 21.3764 22.7902C21.4955 22.7583 21.6221 22.7724 21.7313 22.8296C22.7257 23.3508 23.5075 24.2703 23.821 25.4403C24.1345 26.6103 23.9171 27.7975 23.3166 28.7461C23.2507 28.8502 23.148 28.9257 23.0289 28.9576C22.9099 28.9895 22.7832 28.9755 22.674 28.9182C21.6796 28.397 20.8978 27.4776 20.5843 26.3075Z" fill="url(#paint33_linear_106_2)"/>
<path d="M21.7309 22.8296C22.7253 23.3509 23.5072 24.2703 23.8207 25.4403C24.1341 26.6103 23.9168 27.7975 23.3162 28.7461C23.2503 28.8503 23.1476 28.9258 23.0285 28.9576L21.376 22.7903C21.495 22.7583 21.6218 22.7723 21.7309 22.8296Z" fill="url(#paint34_linear_106_2)"/>
<path d="M16.2831 30.1798C16.8888 29.1308 17.8819 28.445 18.9774 28.1989C19.0976 28.1719 19.2236 28.1912 19.3304 28.2528C19.4371 28.3144 19.5167 28.4139 19.5535 28.5315C19.888 29.6033 19.7908 30.8062 19.1851 31.8552C18.5795 32.9041 17.5864 33.5899 16.4909 33.8361C16.3706 33.863 16.2446 33.8438 16.1379 33.7822C16.0312 33.7206 15.9515 33.6211 15.9148 33.5034C15.5802 32.4317 15.6775 31.2288 16.2831 30.1798Z" fill="url(#paint35_linear_106_2)"/>
<path d="M19.5542 28.5315C19.8888 29.6032 19.7915 30.8062 19.1859 31.8551C18.5802 32.9041 17.5871 33.5899 16.4916 33.836C16.3714 33.8631 16.2454 33.8439 16.1387 33.7822L19.3311 28.2527C19.4379 28.3143 19.5176 28.4138 19.5542 28.5315Z" fill="url(#paint36_linear_106_2)"/>
<path d="M33.3038 22.0683C31.9531 24.929 29.5923 27.1549 26.6573 28.3362C23.7223 29.5166 20.4788 29.5461 17.5228 28.4179L16.3331 27.9635C15.3272 27.5799 14.2834 27.4323 13.2666 27.4981V26.2309C14.4343 26.1668 15.6308 26.3421 16.7842 26.7823L17.9738 27.2359C23.434 29.3201 29.6648 26.8135 32.1596 21.5287C33.6081 18.4613 33.6014 14.9463 32.1428 11.8849C31.4919 10.5198 30.5905 9.32258 29.4987 8.34369C29.3672 8.22566 29.2331 8.11099 29.0965 7.99969H30.9649C31.9151 8.9795 32.6986 10.1082 33.2844 11.341C34.9074 14.7465 34.9142 18.6569 33.3038 22.0683Z" fill="url(#paint37_linear_106_2)"/>
<path d="M22.2024 27.9648C20.7589 27.9986 19.3227 27.751 17.9738 27.2358L16.7842 26.7822C15.6308 26.3421 14.4343 26.1667 13.2666 26.2308V27.4981C14.2834 27.4323 15.3272 27.5798 16.3331 27.9635L17.5228 28.4179C19.0341 28.9947 20.6205 29.2681 22.2024 29.2406V27.9648Z" fill="url(#paint38_linear_106_2)"/>
<path d="M11.4931 19.0696C13.9719 20.8898 15.4263 23.5869 15.7427 26.42C15.8147 27.0647 15.3798 27.6569 14.7431 27.7813C11.9453 28.3276 8.93638 27.7474 6.45756 25.9271C3.97874 24.1069 2.52432 21.4098 2.20798 18.5768C2.13598 17.932 2.57087 17.3398 3.2076 17.2154C6.00538 16.6692 9.01429 17.2493 11.4931 19.0696Z" fill="url(#paint39_linear_106_2)"/>
<path d="M11.4931 19.0696C13.9719 20.8898 15.4263 23.5869 15.7427 26.42C15.8147 27.0647 15.3798 27.6569 14.7431 27.7813C11.9453 28.3276 8.93638 27.7474 6.45756 25.9271C3.97874 24.1069 2.52432 21.4098 2.20798 18.5768C2.13598 17.932 2.57087 17.3398 3.2076 17.2154C6.00538 16.6692 9.01429 17.2493 11.4931 19.0696Z" fill="url(#paint40_linear_106_2)"/>
<path d="M6.45758 25.9273C6.93571 26.2789 7.44256 26.5896 7.97278 26.8563L8.53085 26.6616C11.185 25.7361 13.6948 25.9637 15.509 27.2959C13.6948 25.9637 12.7262 23.6372 12.8147 20.8277L12.8334 20.2369C12.4202 19.8108 11.972 19.4203 11.4934 19.0693C9.01439 17.2491 6.00583 16.6689 3.20779 17.2152C2.57072 17.3395 2.13591 17.9317 2.208 18.5767C2.52443 21.41 3.97867 24.1071 6.45758 25.9273Z" fill="url(#paint41_linear_106_2)"/>
<path d="M12.2088 24.8725C10.3946 23.5404 7.88476 23.3127 5.23064 24.2382L4.78032 24.3953C3.31799 22.7385 2.44466 20.6958 2.208 18.5768C2.13591 17.9317 2.5708 17.3396 3.20779 17.2152C5.30046 16.8067 7.51091 17.0284 9.52955 17.9276L9.51446 18.4043C9.42601 21.2138 10.3946 23.5404 12.2088 24.8725Z" fill="url(#paint42_linear_106_2)"/>
<path d="M8.37428 22.0569C6.88075 20.9601 4.91556 20.6128 2.78664 21.0404C2.49631 20.2452 2.30206 19.4182 2.208 18.5769C2.13591 17.9318 2.5708 17.3397 3.20779 17.2153C4.03865 17.0532 4.88592 16.991 5.73155 17.0299C5.96097 19.189 6.88075 20.9601 8.37428 22.0569Z" fill="url(#paint43_linear_106_2)"/>
<path d="M14.7431 27.7813C11.9453 28.3276 8.93641 27.7474 6.45759 25.9272C3.97877 24.1069 2.52444 21.4098 2.20801 18.5768C2.17298 18.2658 2.25656 17.953 2.44206 17.7009L15.5088 27.2957C15.3238 27.5482 15.0503 27.7216 14.7431 27.7813Z" fill="url(#paint44_linear_106_2)"/>
<path d="M33.2845 11.341C32.6988 10.1082 31.9153 8.9795 30.9651 7.99969H29.0967C29.2333 8.11099 29.3673 8.22566 29.4989 8.34369C30.5907 9.32258 31.492 10.5198 32.1429 11.8849C32.839 13.3459 33.2036 14.9102 33.2381 16.4799H34.5034C34.4687 14.7246 34.0632 12.9747 33.2845 11.341Z" fill="url(#paint45_linear_106_2)"/>
</g>
<path d="M47.815 40.37C47.2783 40.37 46.6367 39.9267 45.89 39.04C45.1433 38.13 44.77 37.395 44.77 36.835C44.77 36.275 45.05 35.12 45.61 33.37C47.3367 28.0033 48.2583 23.3017 48.375 19.265C47.5817 18.425 47.185 17.76 47.185 17.27C47.185 16.5 48.095 15.7767 49.915 15.1C51.7583 14.4 53.5083 14.05 55.165 14.05C57.965 14.05 60.17 14.7033 61.78 16.01C63.4133 17.3167 64.23 18.985 64.23 21.015C64.23 23.605 62.9583 25.95 60.415 28.05C57.895 30.15 54.71 31.585 50.86 32.355C49.7633 36.2983 49.04 38.62 48.69 39.32C48.3633 40.02 48.0717 40.37 47.815 40.37ZM59.26 21.12C59.26 20.3733 58.9917 19.7667 58.455 19.3C57.9183 18.81 57.195 18.565 56.285 18.565C55.375 18.565 54.115 18.9967 52.505 19.86C52.9717 20.6767 53.205 21.4117 53.205 22.065C53.205 23.3483 52.8667 25.25 52.19 27.77C54.29 26.93 55.9933 25.9267 57.3 24.76C58.6067 23.57 59.26 22.3567 59.26 21.12ZM69.019 12.72C69.579 12.72 70.3023 13.2333 71.189 14.26C72.0757 15.2867 72.519 16.2667 72.519 17.2C72.519 18.1333 72.379 19.8017 72.099 22.205C71.819 24.585 71.5273 26.4867 71.224 27.91C69.2873 36.3567 67.934 40.58 67.164 40.58C66.6507 40.58 66.009 40.1717 65.239 39.355C64.4923 38.515 64.119 37.8267 64.119 37.29C64.119 37.2433 64.434 36.03 65.064 33.65C65.694 31.27 66.324 28.2133 66.954 24.48C67.6073 20.7233 67.934 17.1417 67.934 13.735C67.934 13.0583 68.2957 12.72 69.019 12.72ZM88.2559 30.64C88.6759 31.0133 88.8859 31.3517 88.8859 31.655C88.8859 31.9583 88.7459 32.5883 88.4659 33.545C88.1859 34.5017 87.9992 35.2483 87.9059 35.785C87.8125 36.2983 87.7309 36.7067 87.6609 37.01C87.6142 37.3133 87.5792 37.5583 87.5559 37.745C87.5325 37.9083 87.4859 38.1183 87.4159 38.375C87.3692 38.6317 87.3225 38.8417 87.2759 39.005C87.2525 39.145 87.2059 39.32 87.1359 39.53C87.0892 39.7167 87.0309 39.8683 86.9609 39.985C86.8909 40.0783 86.8092 40.1833 86.7159 40.3C86.5759 40.4867 86.3425 40.58 86.0159 40.58C85.6892 40.58 85.2809 40.2533 84.7909 39.6C84.3242 38.9467 83.9742 38.1533 83.7409 37.22C81.5475 39.46 79.7042 40.58 78.2109 40.58C77.2075 40.58 76.1225 40.0317 74.9559 38.935C73.7892 37.815 73.2059 36.7067 73.2059 35.61C73.2059 34.49 73.7075 32.9033 74.7109 30.85C75.7142 28.7967 77.0792 26.895 78.8059 25.145C80.5559 23.395 82.2825 22.52 83.9859 22.52C84.9659 22.52 86.0975 23.0917 87.3809 24.235C88.6642 25.3783 89.3059 26.4283 89.3059 27.385C89.3059 28.3183 88.9559 29.4033 88.2559 30.64ZM78.0709 36.17C79.0042 36.17 80.2409 35.54 81.7809 34.28C83.3442 32.9967 84.3125 31.3867 84.6859 29.45C84.7092 29.17 84.9075 29.0067 85.2809 28.96C85.2109 27.63 84.9892 26.965 84.6159 26.965C83.6825 26.965 82.6325 27.5717 81.4659 28.785C80.3225 29.9983 79.3775 31.2933 78.6309 32.67C77.9075 34.0467 77.5459 35.0617 77.5459 35.715C77.5459 35.9017 77.5692 36.03 77.6159 36.1C77.6859 36.1467 77.8375 36.17 78.0709 36.17ZM104.103 22.52C105.316 22.52 106.378 23.0683 107.288 24.165C108.221 25.2383 108.688 26.3933 108.688 27.63C108.688 29.6133 108.361 31.69 107.708 33.86C107.078 36.0067 106.378 37.6633 105.608 38.83C104.861 39.9967 104.091 40.58 103.298 40.58C102.528 40.58 102.143 40.0317 102.143 38.935C102.143 38.095 102.528 36.4033 103.298 33.86C103.881 31.76 104.173 30.255 104.173 29.345C104.173 28.435 104.056 27.98 103.823 27.98C103.519 27.98 103.216 28.1317 102.913 28.435C102.633 28.7383 102.399 29.0067 102.213 29.24C102.026 29.4733 101.804 29.7767 101.548 30.15C101.314 30.5 101.104 30.8267 100.918 31.13C100.754 31.41 100.533 31.7833 100.253 32.25C99.996 32.6933 99.786 33.0667 99.6227 33.37C99.4593 33.65 99.2493 34.0233 98.9927 34.49C96.8227 38.55 95.1193 40.58 93.8827 40.58C93.3927 40.58 92.7743 40.16 92.0277 39.32C91.281 38.4567 90.9077 37.8267 90.9077 37.43C90.9077 37.1733 91.071 36.625 91.3977 35.785C91.7477 34.9217 91.9927 34.2683 92.1327 33.825C92.296 33.3583 92.4243 32.8683 92.5177 32.355C92.6343 31.8417 92.7277 31.2933 92.7977 30.71C92.8677 30.1033 92.9143 29.6367 92.9377 29.31C92.9843 28.9833 93.031 28.47 93.0777 27.77C93.2877 24.7367 93.4627 23.0567 93.6027 22.73C93.766 22.4033 93.941 22.24 94.1277 22.24C95.0143 22.24 95.866 22.6133 96.6827 23.36C97.4993 24.0833 97.9077 24.7483 97.9077 25.355C97.9077 26.8017 97.5343 28.8783 96.7877 31.585C98.3043 28.925 99.681 26.755 100.918 25.075C102.178 23.3717 103.239 22.52 104.103 22.52ZM119.668 26.685C119.481 27.315 119.201 28.2017 118.828 29.345C118.478 30.465 118.034 31.8767 117.498 33.58C116.984 35.2833 116.728 36.1933 116.728 36.31C116.728 36.4033 116.914 36.45 117.288 36.45C117.684 36.45 118.606 36.1933 120.053 35.68C121.499 35.1433 122.351 34.875 122.608 34.875C123.191 34.875 123.483 35.2717 123.483 36.065C123.483 36.8583 122.701 37.815 121.138 38.935C119.574 40.0317 117.941 40.58 116.238 40.58C115.491 40.58 114.604 40.1717 113.578 39.355C112.551 38.5383 112.038 37.71 112.038 36.87C112.038 36.17 112.388 34.7 113.088 32.46C113.811 30.1967 114.301 28.645 114.558 27.805C113.648 28.0617 112.959 28.19 112.493 28.19C112.026 28.19 111.536 27.875 111.023 27.245C110.509 26.5917 110.253 25.9733 110.253 25.39C110.253 24.6433 112.061 24.0133 115.678 23.5C116.121 21.33 116.343 19.4517 116.343 17.865C116.343 17.165 116.693 16.815 117.393 16.815C117.999 16.815 118.769 17.1883 119.703 17.935C120.659 18.6583 121.138 19.3817 121.138 20.105C121.138 20.805 120.986 21.7967 120.683 23.08C121.803 23.0333 122.654 23.01 123.238 23.01C124.988 23.01 125.863 23.4067 125.863 24.2C125.863 24.7133 125.349 25.1567 124.323 25.53C123.319 25.88 121.768 26.265 119.668 26.685Z" fill="#343434"/>
<defs>
<linearGradient id="paint0_linear_106_2" x1="27.3737" y1="26.9945" x2="33.5056" y2="37.6153" gradientUnits="userSpaceOnUse">
<stop stop-color="#81B823"/>
<stop offset="1" stop-color="#017B4E"/>
</linearGradient>
<linearGradient id="paint1_linear_106_2" x1="32.2657" y1="31.251" x2="18.7133" y2="39.0754" gradientUnits="userSpaceOnUse">
<stop stop-color="#017B4E" stop-opacity="0"/>
<stop offset="1" stop-color="#026841"/>
</linearGradient>
<linearGradient id="paint2_linear_106_2" x1="36.2574" y1="28.9465" x2="22.2864" y2="37.0126" gradientUnits="userSpaceOnUse">
<stop stop-color="#017B4E" stop-opacity="0"/>
<stop offset="1" stop-color="#026841"/>
</linearGradient>
<linearGradient id="paint3_linear_106_2" x1="39.8106" y1="26.8948" x2="29.2555" y2="32.9889" gradientUnits="userSpaceOnUse">
<stop stop-color="#017B4E" stop-opacity="0"/>
<stop offset="1" stop-color="#026841"/>
</linearGradient>
<linearGradient id="paint4_linear_106_2" x1="32.1282" y1="34.6276" x2="29.3293" y2="30.7915" gradientUnits="userSpaceOnUse">
<stop stop-color="#017B4E" stop-opacity="0"/>
<stop offset="1" stop-color="#026841"/>
</linearGradient>
<linearGradient id="paint5_linear_106_2" x1="30.3536" y1="32.9351" x2="29.8477" y2="36.6449" gradientUnits="userSpaceOnUse">
<stop stop-color="#01525A" stop-opacity="0"/>
<stop offset="1" stop-color="#01525A"/>
</linearGradient>
<linearGradient id="paint6_linear_106_2" x1="35.1221" y1="23.3887" x2="36.3228" y2="23.3887" gradientUnits="userSpaceOnUse">
<stop stop-color="#5A5A5A"/>
<stop offset="1" stop-color="#444444"/>
</linearGradient>
<linearGradient id="paint7_linear_106_2" x1="33.9384" y1="23.3887" x2="35.1391" y2="23.3887" gradientUnits="userSpaceOnUse">
<stop stop-color="#5A5A5A"/>
<stop offset="1" stop-color="#444444"/>
</linearGradient>
<linearGradient id="paint8_linear_106_2" x1="34.7028" y1="24.1576" x2="35.1876" y2="24.7478" gradientUnits="userSpaceOnUse">
<stop stop-color="#5A5A5A"/>
<stop offset="1" stop-color="#444444"/>
</linearGradient>
<linearGradient id="paint9_linear_106_2" x1="33.3536" y1="26.8749" x2="36.907" y2="26.8749" gradientUnits="userSpaceOnUse">
<stop stop-color="#5A5A5A"/>
<stop offset="1" stop-color="#444444"/>
</linearGradient>
<linearGradient id="paint10_linear_106_2" x1="33.853" y1="26.2835" x2="35.2231" y2="26.937" gradientUnits="userSpaceOnUse">
<stop stop-color="#FEF0AE"/>
<stop offset="1" stop-color="#FAC600"/>
</linearGradient>
<linearGradient id="paint11_linear_106_2" x1="34.6845" y1="25.6948" x2="35.1061" y2="25.9407" gradientUnits="userSpaceOnUse">
<stop stop-color="#5A5A5A"/>
<stop offset="1" stop-color="#444444"/>
</linearGradient>
<linearGradient id="paint12_linear_106_2" x1="33.6289" y1="28.1217" x2="34.7945" y2="28.1217" gradientUnits="userSpaceOnUse">
<stop stop-color="#5A5A5A"/>
<stop offset="1" stop-color="#444444"/>
</linearGradient>
<linearGradient id="paint13_linear_106_2" x1="33.2451" y1="26.5477" x2="33.7916" y2="26.5477" gradientUnits="userSpaceOnUse">
<stop stop-color="#5A5A5A"/>
<stop offset="1" stop-color="#444444"/>
</linearGradient>
<linearGradient id="paint14_linear_106_2" x1="34.9157" y1="26.5115" x2="36.3912" y2="27.2703" gradientUnits="userSpaceOnUse">
<stop stop-color="#FEF0AE"/>
<stop offset="1" stop-color="#FAC600"/>
</linearGradient>
<linearGradient id="paint15_linear_106_2" x1="35.0785" y1="25.8296" x2="35.472" y2="26.0684" gradientUnits="userSpaceOnUse">
<stop stop-color="#5A5A5A"/>
<stop offset="1" stop-color="#444444"/>
</linearGradient>
<linearGradient id="paint16_linear_106_2" x1="35.4355" y1="28.1217" x2="36.601" y2="28.1217" gradientUnits="userSpaceOnUse">
<stop stop-color="#5A5A5A"/>
<stop offset="1" stop-color="#444444"/>
</linearGradient>
<linearGradient id="paint17_linear_106_2" x1="36.4392" y1="26.5477" x2="36.9858" y2="26.5477" gradientUnits="userSpaceOnUse">
<stop stop-color="#5A5A5A"/>
<stop offset="1" stop-color="#444444"/>
</linearGradient>
<linearGradient id="paint18_linear_106_2" x1="7.64746" y1="21.5" x2="35.3533" y2="21.5" gradientUnits="userSpaceOnUse">
<stop stop-color="#5A5A5A"/>
<stop offset="1" stop-color="#444444"/>
</linearGradient>
<linearGradient id="paint19_linear_106_2" x1="-2.49717" y1="0.961857" x2="40.6715" y2="37.807" gradientUnits="userSpaceOnUse">
<stop stop-color="#433F43" stop-opacity="0"/>
<stop offset="1" stop-color="#1A1A1A"/>
</linearGradient>
<linearGradient id="paint20_linear_106_2" x1="13.3214" y1="21.5" x2="9.86458" y2="21.5" gradientUnits="userSpaceOnUse">
<stop stop-color="#433F43" stop-opacity="0"/>
<stop offset="1" stop-color="#1A1A1A"/>
</linearGradient>
<linearGradient id="paint21_linear_106_2" x1="21.4999" y1="5.45232" x2="21.4999" y2="2.08492" gradientUnits="userSpaceOnUse">
<stop stop-color="#433F43" stop-opacity="0"/>
<stop offset="1" stop-color="#1A1A1A"/>
</linearGradient>
<linearGradient id="paint22_linear_106_2" x1="21.5004" y1="39.3745" x2="21.5004" y2="43.0843" gradientUnits="userSpaceOnUse">
<stop stop-color="#433F43" stop-opacity="0"/>
<stop offset="1" stop-color="#1A1A1A"/>
</linearGradient>
<linearGradient id="paint23_linear_106_2" x1="30.8587" y1="39" x2="34.4358" y2="39" gradientUnits="userSpaceOnUse">
<stop stop-color="#433F43" stop-opacity="0"/>
<stop offset="1" stop-color="#1A1A1A"/>
</linearGradient>
<linearGradient id="paint24_linear_106_2" x1="30.8587" y1="4.00001" x2="34.4358" y2="4.00001" gradientUnits="userSpaceOnUse">
<stop stop-color="#433F43" stop-opacity="0"/>
<stop offset="1" stop-color="#1A1A1A"/>
</linearGradient>
<linearGradient id="paint25_linear_106_2" x1="12.2354" y1="32.1235" x2="12.2354" y2="27.6161" gradientUnits="userSpaceOnUse">
<stop stop-color="#433F43" stop-opacity="0"/>
<stop offset="1"/>
</linearGradient>
<linearGradient id="paint26_linear_106_2" x1="15.9223" y1="10.5673" x2="15.9223" y2="6.07061" gradientUnits="userSpaceOnUse">
<stop stop-color="#433F43" stop-opacity="0"/>
<stop offset="1"/>
</linearGradient>
<linearGradient id="paint27_linear_106_2" x1="24.5395" y1="14.9522" x2="23.6723" y2="11.7155" gradientUnits="userSpaceOnUse">
<stop stop-color="#BBEC6C"/>
<stop offset="1" stop-color="#81B823"/>
</linearGradient>
<linearGradient id="paint28_linear_106_2" x1="23.9833" y1="12.559" x2="24.1837" y2="13.8409" gradientUnits="userSpaceOnUse">
<stop stop-color="#78A91F" stop-opacity="0"/>
<stop offset="0.163" stop-color="#73A620" stop-opacity="0.163"/>
<stop offset="0.354" stop-color="#659E24" stop-opacity="0.354"/>
<stop offset="0.559" stop-color="#4E912B" stop-opacity="0.559"/>
<stop offset="0.774" stop-color="#2D8034" stop-opacity="0.774"/>
<stop offset="0.994" stop-color="#036941" stop-opacity="0.994"/>
<stop offset="1" stop-color="#026841"/>
</linearGradient>
<linearGradient id="paint29_linear_106_2" x1="13.8092" y1="5.55727" x2="21.6554" y2="16.464" gradientUnits="userSpaceOnUse">
<stop stop-color="#BBEC6C"/>
<stop offset="1" stop-color="#81B823"/>
</linearGradient>
<linearGradient id="paint30_linear_106_2" x1="19.0525" y1="13.3364" x2="16.6544" y2="13.3364" gradientUnits="userSpaceOnUse">
<stop stop-color="#017B4E" stop-opacity="0"/>
<stop offset="1" stop-color="#026841"/>
</linearGradient>
<linearGradient id="paint31_linear_106_2" x1="33.9035" y1="10.9649" x2="36.8054" y2="12.6403" gradientUnits="userSpaceOnUse">
<stop stop-color="#81B823"/>
<stop offset="1" stop-color="#017B4E"/>
</linearGradient>
<linearGradient id="paint32_linear_106_2" x1="35.9888" y1="12.2639" x2="34.9407" y2="11.4992" gradientUnits="userSpaceOnUse">
<stop stop-color="#017B4E" stop-opacity="0"/>
<stop offset="1" stop-color="#026841"/>
</linearGradient>
<linearGradient id="paint33_linear_106_2" x1="20.4008" y1="26.2909" x2="23.6375" y2="25.4236" gradientUnits="userSpaceOnUse">
<stop stop-color="#BBEC6C"/>
<stop offset="1" stop-color="#81B823"/>
</linearGradient>
<linearGradient id="paint34_linear_106_2" x1="22.7938" y1="25.7348" x2="21.5119" y2="25.9352" gradientUnits="userSpaceOnUse">
<stop stop-color="#78A91F" stop-opacity="0"/>
<stop offset="0.163" stop-color="#73A620" stop-opacity="0.163"/>
<stop offset="0.354" stop-color="#659E24" stop-opacity="0.354"/>
<stop offset="0.559" stop-color="#4E912B" stop-opacity="0.559"/>
<stop offset="0.774" stop-color="#2D8034" stop-opacity="0.774"/>
<stop offset="0.994" stop-color="#036941" stop-opacity="0.994"/>
<stop offset="1" stop-color="#026841"/>
</linearGradient>
<linearGradient id="paint35_linear_106_2" x1="16.2889" y1="30.1819" x2="19.1907" y2="31.8573" gradientUnits="userSpaceOnUse">
<stop stop-color="#BBEC6C"/>
<stop offset="1" stop-color="#81B823"/>
</linearGradient>
<linearGradient id="paint36_linear_106_2" x1="18.3751" y1="31.4808" x2="17.327" y2="30.716" gradientUnits="userSpaceOnUse">
<stop stop-color="#78A91F" stop-opacity="0"/>
<stop offset="0.163" stop-color="#73A620" stop-opacity="0.163"/>
<stop offset="0.354" stop-color="#659E24" stop-opacity="0.354"/>
<stop offset="0.559" stop-color="#4E912B" stop-opacity="0.559"/>
<stop offset="0.774" stop-color="#2D8034" stop-opacity="0.774"/>
<stop offset="0.994" stop-color="#036941" stop-opacity="0.994"/>
<stop offset="1" stop-color="#026841"/>
</linearGradient>
<linearGradient id="paint37_linear_106_2" x1="22.8804" y1="18.3133" x2="33.5039" y2="26.1545" gradientUnits="userSpaceOnUse">
<stop stop-color="#BBEC6C"/>
<stop offset="1" stop-color="#81B823"/>
</linearGradient>
<linearGradient id="paint38_linear_106_2" x1="18.305" y1="28.053" x2="15.2136" y2="26.3105" gradientUnits="userSpaceOnUse">
<stop stop-color="#78A91F" stop-opacity="0"/>
<stop offset="0.163" stop-color="#73A620" stop-opacity="0.163"/>
<stop offset="0.354" stop-color="#659E24" stop-opacity="0.354"/>
<stop offset="0.559" stop-color="#4E912B" stop-opacity="0.559"/>
<stop offset="0.774" stop-color="#2D8034" stop-opacity="0.774"/>
<stop offset="0.994" stop-color="#036941" stop-opacity="0.994"/>
<stop offset="1" stop-color="#026841"/>
</linearGradient>
<linearGradient id="paint39_linear_106_2" x1="11.5" y1="19.0376" x2="6.46327" y2="25.8943" gradientUnits="userSpaceOnUse">
<stop stop-color="#BBEC6C"/>
<stop offset="1" stop-color="#81B823"/>
</linearGradient>
<linearGradient id="paint40_linear_106_2" x1="11.5" y1="19.0376" x2="6.46327" y2="25.8943" gradientUnits="userSpaceOnUse">
<stop stop-color="#BBEC6C"/>
<stop offset="1" stop-color="#81B823"/>
</linearGradient>
<linearGradient id="paint41_linear_106_2" x1="7.80324" y1="21.6002" x2="16.5526" y2="28.0272" gradientUnits="userSpaceOnUse">
<stop stop-color="#78A91F" stop-opacity="0"/>
<stop offset="0.163" stop-color="#73A620" stop-opacity="0.163"/>
<stop offset="0.354" stop-color="#659E24" stop-opacity="0.354"/>
<stop offset="0.559" stop-color="#4E912B" stop-opacity="0.559"/>
<stop offset="0.774" stop-color="#2D8034" stop-opacity="0.774"/>
<stop offset="0.994" stop-color="#036941" stop-opacity="0.994"/>
<stop offset="1" stop-color="#026841"/>
</linearGradient>
<linearGradient id="paint42_linear_106_2" x1="5.22627" y1="19.7072" x2="14.2459" y2="26.3328" gradientUnits="userSpaceOnUse">
<stop stop-color="#78A91F" stop-opacity="0"/>
<stop offset="0.163" stop-color="#73A620" stop-opacity="0.163"/>
<stop offset="0.354" stop-color="#659E24" stop-opacity="0.354"/>
<stop offset="0.559" stop-color="#4E912B" stop-opacity="0.559"/>
<stop offset="0.774" stop-color="#2D8034" stop-opacity="0.774"/>
<stop offset="0.994" stop-color="#036941" stop-opacity="0.994"/>
<stop offset="1" stop-color="#026841"/>
</linearGradient>
<linearGradient id="paint43_linear_106_2" x1="2.9322" y1="18.022" x2="9.74658" y2="23.0277" gradientUnits="userSpaceOnUse">
<stop stop-color="#78A91F" stop-opacity="0"/>
<stop offset="0.163" stop-color="#73A620" stop-opacity="0.163"/>
<stop offset="0.354" stop-color="#659E24" stop-opacity="0.354"/>
<stop offset="0.559" stop-color="#4E912B" stop-opacity="0.559"/>
<stop offset="0.774" stop-color="#2D8034" stop-opacity="0.774"/>
<stop offset="0.994" stop-color="#036941" stop-opacity="0.994"/>
<stop offset="1" stop-color="#026841"/>
</linearGradient>
<linearGradient id="paint44_linear_106_2" x1="7.64065" y1="23.939" x2="9.86265" y2="21.5069" gradientUnits="userSpaceOnUse">
<stop stop-color="#78A91F" stop-opacity="0"/>
<stop offset="0.163" stop-color="#73A620" stop-opacity="0.163"/>
<stop offset="0.354" stop-color="#659E24" stop-opacity="0.354"/>
<stop offset="0.559" stop-color="#4E912B" stop-opacity="0.559"/>
<stop offset="0.774" stop-color="#2D8034" stop-opacity="0.774"/>
<stop offset="0.994" stop-color="#036941" stop-opacity="0.994"/>
<stop offset="1" stop-color="#026841"/>
</linearGradient>
<linearGradient id="paint45_linear_106_2" x1="31.8" y1="12.2536" x2="31.8" y2="8.37514" gradientUnits="userSpaceOnUse">
<stop stop-color="#78A91F" stop-opacity="0"/>
<stop offset="0.163" stop-color="#73A620" stop-opacity="0.163"/>
<stop offset="0.354" stop-color="#659E24" stop-opacity="0.354"/>
<stop offset="0.559" stop-color="#4E912B" stop-opacity="0.559"/>
<stop offset="0.774" stop-color="#2D8034" stop-opacity="0.774"/>
<stop offset="0.994" stop-color="#036941" stop-opacity="0.994"/>
<stop offset="1" stop-color="#026841"/>
</linearGradient>
<clipPath id="clip0_106_2">
<rect width="43" height="43" fill="white"/>
</clipPath>
</defs>
</svg>
